<?xml version="1.0" standalone="no"?>
<!DOCTYPE svg PUBLIC "-//W3C//DTD SVG 20010904//EN"
 "http://www.w3.org/TR/2001/REC-SVG-20010904/DTD/svg10.dtd">
<svg version="1.0" xmlns="http://www.w3.org/2000/svg"
 width="1024.000000pt" height="118.000000pt" viewBox="0 0 1024.000000 118.000000"
 preserveAspectRatio="xMidYMid meet">

<g transform="translate(0.000000,118.000000) scale(0.100000,-0.100000)"
fill="#000000" stroke="none">
<path d="M410 1000 c0 -5 5 -10 10 -10 6 0 10 5 10 10 0 6 -4 10 -10 10 -5 0
-10 -4 -10 -10z"/>
<path d="M706 1001 c-4 -7 -5 -15 -2 -18 9 -9 19 4 14 18 -4 11 -6 11 -12 0z"/>
<path d="M490 920 c-22 -22 -26 -45 -10 -55 7 -4 -6 -25 -30 -51 -41 -44 -51
-80 -26 -90 29 -11 95 16 124 52 26 31 30 33 42 19 28 -34 100 -58 100 -35 0
6 -18 30 -40 54 -24 26 -37 47 -30 51 35 22 -14 75 -70 75 -27 0 -47 -7 -60
-20z"/>
<path d="M844 905 c-14 -37 26 -69 53 -42 22 22 8 57 -23 57 -14 0 -27 -7 -30
-15z"/>
<path d="M240 855 c0 -8 5 -15 10 -15 6 0 10 7 10 15 0 8 -4 15 -10 15 -5 0
-10 -7 -10 -15z"/>
<path d="M561 758 c-15 -24 -86 -57 -123 -58 -34 0 -36 -21 -8 -67 38 -63 132
-83 198 -43 30 19 71 85 72 117 0 7 -17 17 -39 23 -21 5 -49 19 -63 29 -24 19
-24 19 -37 -1z"/>
<path d="M870 720 c0 -5 5 -10 10 -10 6 0 10 5 10 10 0 6 -4 10 -10 10 -5 0
-10 -4 -10 -10z"/>
<path d="M220 630 c-11 -11 -20 -28 -20 -38 0 -24 31 -52 57 -52 23 0 53 30
53 53 0 21 -35 57 -55 57 -8 0 -24 -9 -35 -20z"/>
<path d="M750 570 c0 -5 5 -10 10 -10 6 0 10 5 10 10 0 6 -4 10 -10 10 -5 0
-10 -4 -10 -10z"/>
<path d="M366 521 c-4 -7 -5 -15 -2 -18 9 -9 19 4 14 18 -4 11 -6 11 -12 0z"/>
<path d="M450 465 l-34 -35 37 0 c37 0 87 34 87 60 0 25 -57 9 -90 -25z"/>
<path d="M574 471 c9 -16 23 -31 31 -35 20 -7 75 -8 75 -1 0 17 -69 64 -93 65
-27 0 -27 0 -13 -29z"/>
<path d="M905 460 c-3 -5 1 -10 9 -10 9 0 16 5 16 10 0 6 -4 10 -9 10 -6 0
-13 -4 -16 -10z"/>
<path d="M536 445 c-10 -28 -68 -45 -112 -34 -35 9 -47 7 -98 -17 -37 -17 -65
-39 -77 -58 -31 -50 -26 -56 46 -56 63 0 65 1 65 25 0 14 5 25 10 25 6 0 10
-11 10 -25 l0 -25 180 0 180 0 0 25 c0 14 5 25 10 25 6 0 10 -11 10 -25 0 -24
3 -25 60 -25 68 0 73 8 37 61 -27 40 -143 95 -164 77 -29 -24 -133 1 -133 32
0 16 -17 12 -24 -5z"/>
</g>
</svg>
